name Walk1.mot
datacolumns 19
datarows 25
range 3.82000000 3.84400000
endheader

                time	   L_ground_force_vx	   L_ground_force_vy	   L_ground_force_vz	   L_ground_force_px	   L_ground_force_py	   L_ground_force_pz	   R_ground_force_vx	   R_ground_force_vy	   R_ground_force_vz	   R_ground_force_px	   R_ground_force_py	   R_ground_force_pz	   L_ground_torque_x	   L_ground_torque_y	   L_ground_torque_z	   R_ground_torque_x	   R_ground_torque_y	   R_ground_torque_z	
          3.82000000	          0.00000000	          0.00000000	          0.00000000	          0.00000000	          0.00000000	          0.00000000	        -11.99656984	        757.20474723	        -67.70466996	          0.25447762	          0.00000000	          0.11754016	          0.00000000	          0.00000000	          0.00000000	          0.00000000	          7.71953219	          0.00000000	
          3.82100000	          0.00000000	          0.00000000	          0.00000000	          0.00000000	          0.00000000	          0.00000000	        -11.80828449	        756.14479009	        -67.41418406	          0.25475275	          0.00000000	          0.11752920	          0.00000000	          0.00000000	          0.00000000	          0.00000000	          7.63743273	          0.00000000	
          3.82200000	          0.00000000	          0.00000000	          0.00000000	          0.00000000	          0.00000000	          0.00000000	        -11.63016171	        755.13885204	        -67.08058561	          0.25497114	          0.00000000	          0.11753010	          0.00000000	          0.00000000	          0.00000000	          0.00000000	          7.55116267	          0.00000000	
          3.82300000	          0.00000000	          0.00000000	          0.00000000	          0.00000000	          0.00000000	          0.00000000	        -11.42995361	        754.20364523	        -66.72253049	          0.25516638	          0.00000000	          0.11753513	          0.00000000	          0.00000000	          0.00000000	          0.00000000	          7.47738443	          0.00000000	
          3.82400000	          0.00000000	          0.00000000	          0.00000000	          0.00000000	          0.00000000	          0.00000000	        -11.18541881	        753.31414807	        -66.36446721	          0.25537834	          0.00000000	          0.11753174	          0.00000000	          0.00000000	          0.00000000	          0.00000000	          7.42179753	          0.00000000	
          3.82500000	          0.00000000	          0.00000000	          0.00000000	          0.00000000	          0.00000000	          0.00000000	        -10.89965502	        752.42259535	        -66.02038785	          0.25563402	          0.00000000	          0.11750846	          0.00000000	          0.00000000	          0.00000000	          0.00000000	          7.37349002	          0.00000000	
          3.82600000	          0.00000000	          0.00000000	          0.00000000	          0.00000000	          0.00000000	          0.00000000	        -10.59733405	        751.51063121	        -65.69267101	          0.25593130	          0.00000000	          0.11746426	          0.00000000	          0.00000000	          0.00000000	          0.00000000	          7.31554231	          0.00000000	
          3.82700000	          0.00000000	          0.00000000	          0.00000000	          0.00000000	          0.00000000	          0.00000000	        -10.30985207	        750.59043271	        -65.37770962	          0.25623498	          0.00000000	          0.11741361	          0.00000000	          0.00000000	          0.00000000	          0.00000000	          7.23676269	          0.00000000	
          3.82800000	          0.00000000	          0.00000000	          0.00000000	          0.00000000	          0.00000000	          0.00000000	        -10.05549397	        749.68582833	        -65.06963778	          0.25650592	          0.00000000	          0.11738243	          0.00000000	          0.00000000	          0.00000000	          0.00000000	          7.13829313	          0.00000000	
          3.82900000	          0.00000000	          0.00000000	          0.00000000	          0.00000000	          0.00000000	          0.00000000	         -9.82499272	        748.82952560	        -64.76292118	          0.25673407	          0.00000000	          0.11739561	          0.00000000	          0.00000000	          0.00000000	          0.00000000	          7.03282700	          0.00000000	
          3.83000000	          0.00000000	          0.00000000	          0.00000000	          0.00000000	          0.00000000	          0.00000000	         -9.59109926	        748.05592827	        -64.45553129	          0.25694603	          0.00000000	          0.11746159	          0.00000000	          0.00000000	          0.00000000	          0.00000000	          6.93425150	          0.00000000	
          3.83100000	          0.00000000	          0.00000000	          0.00000000	          0.00000000	          0.00000000	          0.00000000	         -9.33152743	        747.36959541	        -64.14791545	          0.25718180	          0.00000000	          0.11756241	          0.00000000	          0.00000000	          0.00000000	          0.00000000	          6.84851933	          0.00000000	
          3.83200000	          0.00000000	          0.00000000	          0.00000000	          0.00000000	          0.00000000	          0.00000000	         -9.03926207	        746.72527697	        -63.84049615	          0.25745754	          0.00000000	          0.11766348	          0.00000000	          0.00000000	          0.00000000	          0.00000000	          6.77612853	          0.00000000	
          3.83300000	          0.00000000	          0.00000000	          0.00000000	          0.00000000	          0.00000000	          0.00000000	         -8.71593922	        746.06318480	        -63.53212625	          0.25775435	          0.00000000	          0.11774129	          0.00000000	          0.00000000	          0.00000000	          0.00000000	          6.71740740	          0.00000000	
          3.83400000	          0.00000000	          0.00000000	          0.00000000	          0.00000000	          0.00000000	          0.00000000	         -8.36748697	        745.35992297	        -63.21910492	          0.25804193	          0.00000000	          0.11779702	          0.00000000	          0.00000000	          0.00000000	          0.00000000	          6.66859902	          0.00000000	
          3.83500000	          0.00000000	          0.00000000	          0.00000000	          0.00000000	          0.00000000	          0.00000000	         -8.00852172	        744.62270196	        -62.90144194	          0.25830325	          0.00000000	          0.11784109	          0.00000000	          0.00000000	          0.00000000	          0.00000000	          6.61681998	          0.00000000	
          3.83600000	          0.00000000	          0.00000000	          0.00000000	          0.00000000	          0.00000000	          0.00000000	         -7.65669875	        743.85326082	        -62.58961514	          0.25853785	          0.00000000	          0.11787449	          0.00000000	          0.00000000	          0.00000000	          0.00000000	          6.54834180	          0.00000000	
          3.83700000	          0.00000000	          0.00000000	          0.00000000	          0.00000000	          0.00000000	          0.00000000	         -7.32133604	        743.06096091	        -62.29796908	          0.25875814	          0.00000000	          0.11789196	          0.00000000	          0.00000000	          0.00000000	          0.00000000	          6.46160641	          0.00000000	
          3.83800000	          0.00000000	          0.00000000	          0.00000000	          0.00000000	          0.00000000	          0.00000000	         -7.00294002	        742.28698447	        -62.03125914	          0.25898739	          0.00000000	          0.11789656	          0.00000000	          0.00000000	          0.00000000	          0.00000000	          6.36782884	          0.00000000	
          3.83900000	          0.00000000	          0.00000000	          0.00000000	          0.00000000	          0.00000000	          0.00000000	         -6.69517572	        741.56962540	        -61.78127915	          0.25924644	          0.00000000	          0.11790018	          0.00000000	          0.00000000	          0.00000000	          0.00000000	          6.28070086	          0.00000000	
          3.84000000	          0.00000000	          0.00000000	          0.00000000	          0.00000000	          0.00000000	          0.00000000	         -6.38673321	        740.90137417	        -61.53897319	          0.25954004	          0.00000000	          0.11791169	          0.00000000	          0.00000000	          0.00000000	          0.00000000	          6.20692861	          0.00000000	
          3.84100000	          0.00000000	          0.00000000	          0.00000000	          0.00000000	          0.00000000	          0.00000000	         -6.07409801	        740.24280370	        -61.30504319	          0.25985984	          0.00000000	          0.11793351	          0.00000000	          0.00000000	          0.00000000	          0.00000000	          6.14416494	          0.00000000	
          3.84200000	          0.00000000	          0.00000000	          0.00000000	          0.00000000	          0.00000000	          0.00000000	         -5.77146841	        739.57244220	        -61.08371705	          0.26019586	          0.00000000	          0.11796742	          0.00000000	          0.00000000	          0.00000000	          0.00000000	          6.08499417	          0.00000000	
          3.84300000	          0.00000000	          0.00000000	          0.00000000	          0.00000000	          0.00000000	          0.00000000	         -5.49471260	        738.90808369	        -60.87335725	          0.26054313	          0.00000000	          0.11801727	          0.00000000	          0.00000000	          0.00000000	          0.00000000	          6.02296362	          0.00000000	
          3.84400000	          0.00000000	          0.00000000	          0.00000000	          0.00000000	          0.00000000	          0.00000000	         -5.23884345	        738.26483980	        -60.66907521	          0.26089233	          0.00000000	          0.11808398	          0.00000000	          0.00000000	          0.00000000	          0.00000000	          5.95717566	          0.00000000	
